<?xml version="1.0" encoding="UTF-8"?>
<svg id="Layer_2" data-name="Layer 2" xmlns="http://www.w3.org/2000/svg" viewBox="0 0 2000 2000">
  <defs>
    <style>
      .cls-1, .cls-2, .cls-3 {
        fill: none;
      }

      .cls-1, .cls-4, .cls-5, .cls-6, .cls-7, .cls-8, .cls-9, .cls-10, .cls-11, .cls-12, .cls-13, .cls-14 {
        stroke-width: 0px;
      }

      .cls-2 {
        stroke: #fff;
      }

      .cls-2, .cls-3 {
        stroke-linecap: round;
        stroke-linejoin: round;
        stroke-width: 5px;
      }

      .cls-3 {
        stroke: #000;
      }

      .cls-5 {
        fill: #292929;
      }

      .cls-6 {
        fill: #099672;
      }

      .cls-7 {
        fill: #0ebdff;
      }

      .cls-8 {
        fill: #163342;
      }

      .cls-9 {
        fill: #dd3354;
      }

      .cls-10 {
        fill: #fff;
      }

      .cls-11 {
        fill: #ff9e9f;
      }

      .cls-12 {
        fill: #f4e12c;
      }

      .cls-13 {
        fill: #f16d55;
      }

      .cls-14 {
        fill: #f06d57;
      }
    </style>
  </defs>
  <g id="_03" data-name="03">
    <g>
      <rect class="cls-1" x="0" width="2000" height="2000"/>
      <g>
        <rect class="cls-3" x="565.22" y="298.16" width="285.17" height="353"/>
        <rect class="cls-3" x="588.39" y="321.26" width="238.83" height="306.79"/>
        <circle class="cls-3" cx="707.81" cy="394.82" r="35.92"/>
        <rect class="cls-3" x="650.47" y="474.66" width="114.67" height="14.61"/>
        <rect class="cls-3" x="626.92" y="521.11" width="161.78" height="14.34"/>
      </g>
      <g>
        <rect class="cls-4" x="142.82" y="1402.82" width="26" height="322.2"/>
        <rect class="cls-5" x="97.82" y="898.38" width="294" height="563.54" rx="19.05" ry="19.05"/>
        <rect class="cls-4" x="155.82" y="898.49" width="294" height="490.33" rx="19.05" ry="19.05"/>
      </g>
      <g>
        <path class="cls-3" d="m1797.2,1722.28h18.63c0-61.93-56.41-112.99-129.18-120.18v-306.74h-35.31v306.74c-.31.03-.63.06-.94.09-.25-.03-.5-.06-.75-.09v.17c-71.95,7.8-127.5,58.56-127.5,120.01h18.63c2.3-50.43,42-92.35,95.3-104.79-42.88,21.13-71.61,59.74-71.61,103.92h18.63c2.18-47.8,37.96-87.91,87.07-102.57,50.63,13.9,87.82,54.68,90.05,103.44h18.63c0-43.38-27.7-81.41-69.3-102.78,49.41,14.51,85.47,54.79,87.66,102.78Z"/>
        <g>
          <rect class="cls-4" x="1588.16" y="1037.49" width="322.67" height="322.67" rx="53.92" ry="53.92"/>
          <rect class="cls-5" x="1544.16" y="1317.49" width="320.12" height="85.33" rx="17.33" ry="17.33"/>
        </g>
      </g>
      <g>
        <rect class="cls-4" x="1110.82" y="1198.82" width="30" height="526.2"/>
        <rect class="cls-4" x="1772.16" y="1198.82" width="30" height="526.2"/>
      </g>
      <g>
        <path class="cls-4" d="m1441.27,705.27c-12.3,30.37-24.59,60.74-36.89,91.11,25.93,1.19,51.85,2.37,77.78,3.56,2.67-19.56,5.33-39.11,8-58.67-16.3-12-32.59-24-48.89-36Z"/>
        <g>
          <g>
            <path class="cls-4" d="m1192.73,1607.51c-2.93.33-5.62,1.75-7.55,3.97-21.88,25.21-43.34,40.56-59.79,50.17-41.08,24-75.07,26.31-89.43,55.59-4.14,8.44-5.61,17.01-5.83,24.62-.19,6.68,5.18,12.18,11.86,12.12,56.4-.5,112.8-1.01,169.2-1.51,6.07-.05,11.12-4.72,11.61-10.77,2.85-35.22,17.14-58.66,28.95-59.09,11.72-.43,27.38,21.57,33.24,55.41.97,5.58,5.8,9.67,11.46,9.73l16.84.16c6.49.06,11.81-5.15,11.87-11.65.41-43.5.81-87.01,1.22-130.51.07-7.06-6.06-12.58-13.07-11.79-40.19,4.52-80.38,9.04-120.58,13.56Z"/>
            <path class="cls-4" d="m1422.06,1607.51c-2.93.33-5.62,1.75-7.55,3.97-21.88,25.21-43.34,40.56-59.79,50.17-41.08,24-75.07,26.31-89.43,55.59-4.14,8.44-5.61,17.01-5.83,24.62-.19,6.68,5.18,12.18,11.86,12.12,56.4-.5,112.8-1.01,169.2-1.51,6.07-.05,11.12-4.72,11.61-10.77,2.85-35.22,17.14-58.66,28.95-59.09,11.72-.43,27.38,21.57,33.24,55.41.97,5.58,5.8,9.67,11.46,9.73l16.84.16c6.49.06,11.81-5.15,11.87-11.65.41-43.5.81-87.01,1.22-130.51.07-7.06-6.06-12.58-13.07-11.79-40.19,4.52-80.38,9.04-120.58,13.56Z"/>
          </g>
          <g>
            <path class="cls-7" d="m1132.16,1449.49v148.02c18.63,8.14,46.25,17.51,80.67,19.98,56.16,4.03,100-12.49,122-22.67,26.38,10.06,68.44,22.51,121.33,23.33,53.62.84,96.54-10.61,123.33-20v-149.33c-84.89-54.44-169.78-108.89-254.67-163.33-64.22,54.67-128.44,109.33-192.67,164Z"/>
            <path class="cls-3" d="m1544.33,1608.47c-24.36,5.8-58.05,11.14-98.14,9.39-47.47-2.07-85.73-13.28-111.36-23.04v-256.34"/>
          </g>
          <path class="cls-2" d="m1354.72,1661.65c-16.68,9.38-30.63,15.54-40.31,19.45-11.98,4.83-22.43,8.23-34.03,17.82-7.54,6.23-11.45,11.67-13.95,16.15-4.1,7.34-5.62,14.22-6.24,18.72"/>
        </g>
        <path class="cls-10" d="m1538.96,768.06c-52.58-.77-114.84-.85-167.1,39.57-3.9,3.02-19.34,15.23-35.93,37.64-67.25,90.84-78.09,247.59-80.44,297.78-3.22,13.93-6.44,27.85-9.67,41.78-15,3.39-38.32,10.67-61,28-46.8,35.75-59.1,89.95-70,138-6.06,26.72-12.48,67.72-9,119h181.22c2.89-18.37,7.01-38.56,12.89-60.11,7.02-25.73,15.26-48.62,23.56-68.44,3.9,23.32,8.85,47.99,15.11,73.78,4.66,19.18,9.67,37.45,14.89,54.78h249.34v-105c18.65-6.24,52.52-20.56,82-53,52.87-58.18,50.83-129.81,50-145.67,16.36-21.47,39.67-58.29,49-108.33,19.38-103.91-28.24-227.98-120-272-34.25-16.43-64.45-16.88-124.86-17.76Z"/>
        <path class="cls-13" d="m1397,1034.23c-14.88.13-29.76.25-44.64.38-4.18-2.55-9.45-5.28-15.76-7.56-9.5-3.43-18.05-4.63-24.44-5,.08-.66.1-1.45,0-2.33-.25-2.17-1.16-3.77-1.78-4.67-4.54-3.33-11.39-7.57-20.44-10.44-28.79-9.13-54.49,3.69-61.78,7.33-22.53,11.24-34.41,28.61-38.44,35.11-13.89,22.38-28.15,66.24-4.22,95.78,14.27,17.61,35.67,22.19,46.22,23.56,55.48-.22,110.96-.44,166.44-.67-.97-15.31-1.68-31.1-2.08-47.35-.71-29.46-.3-57.55.92-84.13Z"/>
        <g>
          <path class="cls-3" d="m1379.93,815.05c-12.28,15.02-52.04,67.47-48.44,140.89,1.68,34.33,12.27,61.46,20.88,78.67"/>
          <path class="cls-3" d="m1643.82,897.16c-3.11,19.81-6.01,40.15-8.67,61-2.12,16.62-4,32.96-5.67,49-76.96-.04-153.93-.07-230.89-.11-2.16,30.58-3.26,63.37-2.78,98.11.28,20.54,1.1,40.34,2.33,59.33"/>
          <path class="cls-3" d="m1596.16,778.82c16,18.11,32,36.22,48,54.33-23.44,1.89-46.89,3.78-70.33,5.67,5.78,17.33,11.56,34.67,17.33,52-18.96,7.33-41.81,18.23-65.67,34.67-39.92,27.5-65.89,58.94-81.56,81.58"/>
          <path class="cls-3" d="m1446.6,786.6c-14.81,11.11-29.63,22.22-44.44,33.33,7.26,2.96,14.52,5.93,21.78,8.89-17.33,15.41-34.67,30.81-52,46.22-.98,18.41-.81,39.68,1.78,63.11,4.29,38.84,13.84,71.33,23.29,96.07"/>
          <path class="cls-3" d="m1353.49,1469.82c-5.93-19.94-11.59-40.93-16.83-62.94-8.29-34.82-14.52-67.97-19.17-99.06"/>
        </g>
        <g>
          <path class="cls-7" d="m1480.16,792.38c27.33-2.96,54.67-5.93,82-8.89v6.22c-22.16,14.36-50.68,36.06-78.67,67.56-30.66,34.5-49.75,68.48-61.46,93.68-.04-4.27.02-10.15.46-17.12,2.18-34.49,11.47-61.11,17-74.78,12.35-30.56,28.64-52.71,40.67-66.67Z"/>
          <path class="cls-4" d="m1431.16,651.49c-2.17-4.79-5.36-13.47-5.33-24.67,0-2.04.21-16.99,8.67-30.67,11.32-18.31,31.02-24,46-28.33,9.47-2.74,67.32-18.29,106.33,16.33,1.8,1.59,6.28,5.72,11.35,12.41,26.07,34.45,22.04,76.97,18.99,95.59-62-13.56-124-27.11-186-40.67Z"/>
          <path class="cls-13" d="m1467.69,808.14c2.05-17.09,4.09-34.19,6.14-51.28-3-.33-7.08-1.05-11.67-2.71-1.02-.37-8.11-2.98-13.78-7.56-7.62-6.16-11.07-14.6-13.56-22.61-7.41-23.91-12.22-63.35-3.33-99.61,2.54-10.37,6.39-21.23,16.11-28.57,2.89-2.18,5.59-3.52,7.45-4.32,35.11.89,70.22,1.78,105.33,2.67,18.52,22.96,37.04,45.93,55.56,68.89.7,5.77,2.99,30.1-13.33,53.33-17.2,24.47-42.65,30.06-48,31.11-.14,16.01-.27,32.03-.41,48.04-6.47,5.01-12.94,10.02-19.41,15.03-5.92.68-12.22,1.17-18.85,1.37-18.25.55-34.53-1.21-48.25-3.79Z"/>
          <path class="cls-3" d="m1411.71,1007.05c.46-11.33,2.05-27.65,7.33-46.45,12.91-45.99,39.03-75.38,64.44-103.33,17.06-18.77,42.75-43.6,78.67-67.56"/>
          <path class="cls-4" d="m1615.43,788.42l6.77-38.64,16.08,35.78.25.55c3.64-1.43,6.97-2.89,9.96-4.29,3.36-19.23,6.15-49.57-1.33-85.33-10.55-50.42-35.88-84.69-49.89-101.11-17.36-6.86-46.25-15.68-82.61-14.89-26.15.56-47.68,5.91-62.83,11,3.86,9.02,14.21,29.86,37.33,46,25.96,18.12,52.29,19.35,61.89,19.33,1.12-2.32,8.3-16.64,22.44-19.33,17.88-3.4,36.55,13.74,39,32.67,2,15.48-7.53,30.29-20,37.67-16.43,9.72-33.52,3.89-36,3-1.44,12-3.96,26.01-8.33,41.33-4.44,15.55-9.8,28.94-15,40,3.57,1,7.49,1.91,11.73,2.65,7.01,1.22,13.44,1.71,19.05,1.79,3.57-10.57,7.14-21.14,10.7-31.71l5.02,32.92c6.37-.11,13.1-.58,20.14-1.55,5.17-.71,10.09-1.64,14.74-2.71l.9-5.13Z"/>
          <g>
            <path class="cls-3" d="m1586.23,663.51c-6.71,4.21-13.42,8.43-20.13,12.64,7.31,3.02,14.61,6.04,21.92,9.06"/>
            <path class="cls-3" d="m1435.49,649.05c2.65-1.38,10.05-4.79,19.78-3.56,9,1.14,15,5.61,17.33,7.56.66,3.17,1.15,7.68.22,12.89-2.25,12.66-11.21,20.09-14,22.22,2.19,1.93,5.06,4.15,8.67,6.22,3.71,2.13,7.17,3.52,10,4.44"/>
            <path class="cls-3" d="m1465.16,718.32c2.27,1.81,6.76,4.85,13.17,6,10.44,1.87,18.56-2.63,20.83-4"/>
            <path class="cls-3" d="m1491.82,651.16c3.67-2.18,11.33-6.07,21.83-6.67,10.53-.6,18.61,2.41,22.5,4.17"/>
          </g>
        </g>
        <path class="cls-3" d="m1380.82,1034.37c-9.49.08-18.97.16-28.46.24-2.79-1.58-6.96-3.79-12.21-5.95-31.34-12.9-70.76-11.74-89.67,6.33-2.62,2.51-9.62,9.2-8.17,16.17,1.05,5.02,6,7.88,7.17,8.56,6.25,3.61,10.58,1.14,22.67,1.11,9.61-.03,21.04.09,28,7.33,1.19,1.24,4.26,4.52,4.5,9.33.3,5.99-3.97,10.21-4.94,11.11-2.38,2.21-5.49,3.69-15.06,4.72-10.07,1.09-17.44.64-31.39,1.5-5.61.35-8.18.65-10.82,2.53-4.76,3.39-7.1,10.05-6.29,15.69,1.25,8.75,9.96,14.52,16.44,16.67,6.3,2.09,14.64,1.47,31.33.22,4.27-.32,8.66-.74,11.11,2,2.75,3.09,1.63,8.59,1.11,11.11,0,0-1.07,5.21-4.22,9.56-5.15,7.1-31.54,14.14-67.78,16.22"/>
      </g>
      <g>
        <path class="cls-6" d="m1047.26,1011.13c-3.64-.44-26.25-3.55-40.66-24.09-16.79-23.91-7.8-50.55-6.89-53.11,3.12.21,27.38,2.3,42.22,23.78,16.87,24.41,6.12,51.53,5.33,53.42Z"/>
        <path class="cls-3" d="m1040.99,1031.16c1.55-7.04,4.01-15.25,8-24,8.7-19.06,20.71-32.05,29.33-39.83,2.89,3.56,5.78,7.11,8.67,10.67-7.78,6.2-17.94,15.76-27,29.5-6.06,9.18-10.1,17.91-12.83,25.17-2.06-.5-4.11-1-6.17-1.5Z"/>
        <g>
          <path class="cls-9" d="m1128.82,1088.14c.31-4.75,2.59-49.4-29-64.33-24.8-11.72-51.41,3.89-54.33,5.67-3.54-2.19-27.31-16.38-49.91-6.8-32.53,13.78-29.62,62.82-29.42,65.47,2.61,35.65,32.09,81.33,81.33,81.33,49.02,0,78.96-45.26,81.33-81.33Z"/>
          <circle class="cls-10" cx="1001.6" cy="1060.49" r="15.44"/>
        </g>
      </g>
      <g>
        <g>
          <path class="cls-4" d="m660.89,1602.72c1,46.16,2,92.33,2.99,138.49.15,7.09,5.94,12.76,13.04,12.76h289.97c9.7,0,15.98-10.19,11.67-18.87-1.11-2.24-2.35-4.55-3.73-6.9-22.38-38.18-59.04-48.93-94.67-69.78-20.74-12.14-48.5-32.02-76.99-65.55-2.51-2.95-6.2-4.65-10.07-4.61-39.77.38-79.53.76-119.3,1.15-7.26.07-13.07,6.06-12.91,13.32Z"/>
          <path class="cls-4" d="m381.29,1602.72c.74,46.16,1.48,92.33,2.22,138.49.11,7.09,4.41,12.76,9.66,12.76h214.98c7.19,0,11.85-10.19,8.65-18.87-1.13-3.06-1.88-5.61-2.77-6.9-9.71-14.15-50.56-41.38-68.54-61.33-27.31-30.3-16.96-60.52-46.67-74-2.75-1.25-8.34-2.37-19.52-4.61-42.02-8.42-65.54.85-88.45,1.15-5.38.07-9.69,6.06-9.57,13.32Z"/>
        </g>
        <path class="cls-14" d="m196.49,1181.53c-5.1,11.44-40.91,95.45,3,181,30.49,59.4,81.79,85.24,99,93v153.03c39.61,10.37,95.24,20.51,162,18.97,70.82-1.64,128.81-15.83,169-29,31.48,3.32,65.58,5.55,102,6,59.18.73,112.91-3.37,160-9.67,2.02-17.3,4.14-43.81,2.67-76-2.33-50.79-8.25-180.14-102.67-264.33-19.95-17.79-59.46-47.48-124-63-157-3.33-314-6.67-471-10Z"/>
        <path class="cls-3" d="m416.6,1626.89c44.72,1.74,98.41-.72,157.62-13.2,20.46-4.31,39.62-9.41,57.41-14.94,4.94-66.8,3-121.57-.14-161.22-2.85-35.97-6.69-59.68-19-86-15.07-32.22-36.12-54.02-51-67"/>
      </g>
      <g>
        <g>
          <rect class="cls-8" x="926.82" y="1198.82" width="30" height="555.15"/>
          <rect class="cls-8" x="1588.16" y="1198.82" width="30" height="555.15"/>
        </g>
        <g>
          <rect class="cls-7" x="893.82" y="1164.49" width="963" height="45" rx="6.39" ry="6.39"/>
          <rect class="cls-8" x="1522.61" y="1164.49" width="334.22" height="45" rx="6.39" ry="6.39"/>
        </g>
      </g>
      <g>
        <path class="cls-12" d="m750.82,859.49c-85.87-65.56-181.39-71.21-228.67-74-58.46-3.45-134.9-8.31-211.33,38-8.03,4.87-138.35,86.78-142.67,234-.4,13.8-2.46,151.3,92.67,204.67,28.82,16.17,57.58,19.58,76.67,20h173.34v-77.33h264.66c81.83,0,95.92-26.37,103.33-36,50.2-65.21-19.15-226.23-128-309.33Z"/>
        <g>
          <path class="cls-11" d="m510.88,1163.88c16.79-1.51,44.08-1.72,75.14,8.61,14.25,4.74,44.99,16.87,72.44,45.56,28.26,29.53,34.05,56.66,33.56,69.11-.13,3.26-.44,11.12-5.56,14.22-5.32,3.22-13.06-.38-15.11-1.33-1.52-.71-4.2-2.14-10.44-8.44-3.11-3.14-7.19-7.57-11.56-13.33,2.76,3.98,12.96,19.48,8.78,33.22-1.43,4.69-3.68,6.38-4.33,6.83-5.92,4.11-15.13-.15-19.5-2.17-2.75-1.27-7.75-3.91-21.33-17-4.74-4.57-8.51-8.46-10.98-11.08,3.39,4.33,7.66,11.34,8.65,20.58.45,4.19,1.5,14.12-4.17,18.33-3.33,2.48-7.55,1.94-9.7,1.67-6.94-.86-11.33-4.95-22.3-15.5-7.19-6.92-12.72-12.29-15.5-15-5.62-.77-20.02-3.5-32.83-15.33-9.01-8.32-13.32-17.52-15.3-22.76.02-32.06.03-64.13.05-96.19Z"/>
          <path class="cls-3" d="m610.36,1320.57c.98-10.31-.97-18.1-2.52-22.64-4.94-14.41-15.09-22.95-22.01-28.77-5.82-4.89-11.25-8.21-15.17-10.33"/>
          <path class="cls-3" d="m659.07,1306.26c-.11-3.55-.62-8.87-2.67-14.92-1.84-5.43-4.37-9.82-7.91-14.74-9.65-13.45-22.56-25.01-28.67-30.22"/>
        </g>
        <g>
          <path class="cls-5" d="m427.93,653.27c-3.49-10.7-7.74-28.46-5.44-50.11.8-7.5,1.99-18.78,7.25-29.59,17.83-36.68,70.12-42.84,77.75-43.74,16.77-1.98,56.34-6.64,85.33,22.11,28.25,28.01,25.46,66.93,24.91,73.17-48.01,20.94-96.01,41.89-144.02,62.83-15.26-11.56-30.52-23.11-45.78-34.67Z"/>
          <g>
            <path class="cls-11" d="m465.27,711.93c-2.96,31.11-5.93,62.22-8.89,93.33,9.8,5.68,26.77,13.8,49.33,16.44,29.54,3.47,52.83-4.3,64-8.89.3-20.74.59-41.48.89-62.22,7.87-2.58,24.17-9.21,34.67-25.33,6.01-9.23,7.9-18.17,9.33-28.89,5.08-37.84,12.04-89.73-18.44-113.29-4.75-3.67-8.73-5.36-14.01-7.6-33.12-14.04-79.4-8.89-96.89,17.33-3.69,5.54-4.98,10.95-7.56,21.78-6.16,25.92-5.27,48.09-3.56,62.67-3.44.11-6.89.23-10.33.34,1.29-15.21-4.94-29.09-16.12-35.23-2.12-1.17-10.88-5.6-20.79-2.52-12.95,4.03-17.59,17.7-18.54,20.52-5.72,16.84.92,40.07,19.11,50.22,17.11,9.55,35.21,2.4,37.78,1.33Z"/>
            <path class="cls-3" d="m599.39,613.74c-2-.74-10.53-3.64-19.89.33-6.5,2.76-10.11,7.43-11.56,9.56,1.14,5.73,2.94,12.56,5.89,20,3.06,7.73,6.57,14.15,9.78,19.22-4.81,3.78-9.63,7.56-14.44,11.33"/>
            <path class="cls-3" d="m541.93,625.49c-2.65-1.43-10.54-5.23-20.89-3.78-11.98,1.68-19.07,9.26-20.89,11.33"/>
            <path class="cls-3" d="m540.49,705.21c3.86-3.82,14.03-12.79,29.07-14.33,7.09-.73,13.08.42,17.26,1.67"/>
            <path class="cls-3" d="m420.3,663.84l30.11,11.25c-4.18,8.24-8.37,16.47-12.55,24.71"/>
          </g>
        </g>
        <g>
          <path class="cls-11" d="m751.94,884.84c-4.05-12.81-10.44-28.41-20.79-44.68-21.85-34.35-49.96-53.83-67-63.67-2.84-3.25-57.78-65.62-73.67-66.33-7.21-.32-11,3-11,3-3.75,3.29-4.21,8.32-4.33,9.67-.93,10.2,8.17,18.71,17.67,28.67,6.96,7.29,16.88,18.25,28.33,33-1.21-.49-14.34-5.56-24.33,1.67-7.62,5.51-8.85,14.86-9.67,21-1.01,7.65.28,13.96,1.33,17.67-5.4,8.01-6.89,15.17-7.33,19.67-1.89,19.28,10.72,39.11,31.67,51.33,7.53,4.12,15.81,4.27,21.2.16,1.24-.95,3.1-2.72,4.47-5.82,2.47,5.11,7.34,13.33,16.33,20.33,16.64,12.96,35.33,12.32,40.64,11.96,18.83-12.54,37.65-25.07,56.48-37.61Z"/>
          <path class="cls-3" d="m591.4,710.26c-.96-.17-7.19-1.18-11.91,2.9-4.87,4.21-6.14,12.1-2.52,18.93,14.73,17.47,29.46,34.94,44.18,52.41-2.87-1.15-12.29-4.49-20.97-.27-11.61,5.64-17.86,22.81-11.69,40.61"/>
          <path class="cls-3" d="m641.49,797.49c-2.13-1.94-4.64-3.99-7.56-6-4.61-3.17-9.01-5.41-12.78-7"/>
          <path class="cls-3" d="m620.82,823.71c-.97-.7-12.87-8.98-24.67-4-10.07,4.25-12.97,15.18-13.95,18.85-6.81,25.62,19.46,49.04,23.17,52.34,5.67,5.05,10.74,6.55,12.02,6.91,4.66,1.29,8.72,1.04,11.13.72"/>
          <path class="cls-3" d="m607.93,853.71c3.48,5.1,7.73,10.69,12.89,16.44,5.85,6.52,11.64,11.88,16.89,16.22,1.89,5.32,5.56,13.25,12.87,20.45,17.25,17,40.44,15.92,44.88,15.62"/>
        </g>
        <g>
          <path class="cls-3" d="m320.16,940.16c9.79,12.36,19.85,26.76,29.33,43.33,24.67,43.12,35.92,84.3,41.33,115.33h120c0,61.11,0,122.22,0,183.33"/>
          <path class="cls-3" d="m768.39,873.88c-45.86,30.54-91.71,61.07-137.57,91.61,13.25,24.46,28.89,50.71,47.33,78,17.97,26.59,36.01,50.33,53.33,71.33"/>
        </g>
      </g>
      <g>
        <rect class="cls-3" x="1212.49" y="347.49" width="446" height="44"/>
        <g>
          <path class="cls-3" d="m1322.05,242.16h-78.67c9.85,35.11,19.7,70.22,29.56,105.33"/>
          <path class="cls-3" d="m1322.05,242.16h78.67c-9.85,35.11-19.7,70.22-29.56,105.33"/>
        </g>
        <path class="cls-3" d="m1274.94,241.65c-10.27-10.86-31.67-36.13-36.45-74.16-.64-5.12-7.87-67.57,21.33-80,22.76-9.69,57.45,15.36,71.33,44,9.64,19.89,8.12,39.18,6.67,48.67,4.35-4.5,13.76-12.89,28-16,15-3.27,39.31-1.54,47.33,14,6.62,12.82-1.36,28.25-4.44,34.22-10.44,20.19-29.69,27.27-35.59,29.3"/>
      </g>
    </g>
  </g>
</svg>